<svg xmlns="http://www.w3.org/2000/svg" viewBox="0 0 64 64"><g id="_42.thermometer" data-name="42.thermometer"><path d="M45,34.63h-5.7a1,1,0,0,0,0,2H45A1,1,0,0,0,45,34.63Z"/><path d="M45,30.48h-5.7a1,1,0,0,0,0,2H45A1,1,0,0,0,45,30.48Z"/><path d="M45,26.33h-5.7a1,1,0,0,0,0,2H45A1,1,0,0,0,45,26.33Z"/><path d="M45,22.19h-5.7a1,1,0,0,0,0,2H45A1,1,0,0,0,45,22.19Z"/><path d="M45,18h-5.7a1,1,0,0,0,0,2H45A1,1,0,0,0,45,18Z"/><path d="M39.26,15.89H45a1,1,0,0,0,0-2h-5.7A1,1,0,0,0,39.26,15.89Z"/><path d="M36.11,39.44V10.74a6.71,6.71,0,0,0-13.41,0v28.7C13.88,45.73,18.56,60.06,29.41,60,40.25,60.06,44.94,45.73,36.11,39.44Zm-6.7,15.37c-7.31,0-8.49-10.54-1.48-12.25-.06-.15,0-30.1,0-30.26a1.5,1.5,0,0,1,3,0c0,.17,0,30.11,0,30.26C37.9,44.27,36.71,54.78,29.41,54.81Z"/></g></svg>